<svg height='300px' width='300px'  fill="#f42b37" xmlns="http://www.w3.org/2000/svg" xmlns:xlink="http://www.w3.org/1999/xlink" version="1.0" x="0px" y="0px" viewBox="0 0 100 100" enable-background="new 0 0 100 100" xml:space="preserve"><path fill="#f42b37" d="M20.829,91.706c-0.617-0.432,1.234-1.45,2.437-2.376c1.203-0.926,2.777-1.018,2.777-1.018  s-0.648-5.646-1.388-6.849c-0.74-1.203-1.604-5.09-1.219-6.293c0.386-1.203,4.458-11.568,4.458-11.846  c0-0.278-1.666-1.666-2.499-2.499c-0.833-0.833-2.591-9.162-3.054-13.975c-0.463-4.812-2.499-18.439-0.463-25.82  c0.627-2.274,7.557-11.364,18.694-13.327c12.031-2.121,18.88-0.278,22.859,2.776c3.979,3.054,9.625,9.162,11.476,18.879  c1.851,9.717,1.851,26.654-0.648,30.17c-2.499,3.517-5.738,4.257-5.738,4.257s-0.833,6.941,1.018,9.625  c1.851,2.684,6.427,8.885,6.684,9.533c0.257,0.647-9.553,6.848-10.571,6.756c-1.018-0.093-0.37-2.499,1.388-3.887  c1.758-1.388,2.036-2.498,2.036-2.498s-3.239-4.72-4.165-9.07c-0.926-4.35-0.74-9.532-0.74-9.532s-9.903,1.388-19.157,0.833  c-9.255-0.555-12.031-0.648-12.031-0.648s-4.35,6.479-4.165,10.272c0.185,3.795,3.98,12.771,4.35,13.512  C33.538,89.423,21.446,92.139,20.829,91.706z M25.024,24.216c-2.417,3.162,1.974,15.054,5.183,16.288  c3.208,1.234,10.859,4.936,22.951,0c12.093-4.936,13.82-7.157,14.067-8.391c0.247-1.234-6.17-18.263-9.625-19.003  C54.146,12.37,31.441,15.825,25.024,24.216z"></path><circle cx="30.947" cy="28.412" r="2.098"></circle><circle cx="53.652" cy="21.625" r="2.098"></circle><path d="M57.25,31.5c0,0-3.815-4.73-8.783-1.99S42,37.25,38.25,37S37,42,41.5,39.75S55.25,33.25,57.25,31.5z"></path></svg>