<svg width='78px' height='80px' fill="#934E0E" xmlns="http://www.w3.org/2000/svg" viewBox="0 0 100 100">
    <title id="title-opendoor">Open Door</title>
    <path d="M34.4,50.5L34.4,50.5c-0.1,0-0.1-0.1-0.1-0.1v-1.3c0-0.1,0.1-0.1,0.1-0.1l0,0c0.1,0,0.1,0.1,0.1,0.1v1.3  C34.5,50.4,34.5,50.5,34.4,50.5z"/>
    <g fill-rule="nonzero" fill="#934E0E">
        <path d="M74.2,88.1V9.7H37.5V0l-8.6,9.7h-0.6v78.3H5v2.3h24.3l8.1,9.7V12H72v78.3h23v-2.3H74.2z M35,50.3c0,0.7-0.2,1.3-0.5,1.3   h-0.2c-0.3,0-0.5-0.6-0.5-1.3v-4.5l-1.3,0.1c0,0,0,0,0,0c-0.1,0-0.2-0.2-0.2-0.5c0-0.3,0.1-0.5,0.2-0.5l1.3-0.1v-0.8   c0-0.7,0.2-1.3,0.5-1.3h0.2c0.3,0,0.5,0.6,0.5,1.3V50.3z"/>
    </g>
</svg>